 <svg class="icon" viewBox="0 0 1024 1024" version="1.1" xmlns="http://www.w3.org/2000/svg" p-id="9333" height="128" width="128"><path d="M646.4 371.2c0-19.2-12.8-32-38.4-32-19.2 0-32 12.8-32 32v390.4c0 19.2 12.8 32 38.4 32 19.2 0 38.4-12.8 38.4-32V371.2zM96 147.2c-19.2 0-32 12.8-32 32s12.8 32 32 32h825.6c19.2 0 32-12.8 32-32s-12.8-32-32-32H96zM665.6 89.6c19.2 0 38.4-12.8 38.4-38.4 0-19.2-19.2-38.4-38.4-38.4H358.4c-19.2 6.4-38.4 19.2-38.4 38.4s19.2 38.4 38.4 38.4h307.2zM454.4 755.2v-384c0-19.2-12.8-32-38.4-32-19.2 0-32 12.8-32 32v390.4c0 19.2 12.8 32 38.4 32 19.2-6.4 32-19.2 32-38.4" fill="#2F3448" p-id="9334"></path><path d="M723.2 1011.2H300.8c-76.8 0-140.8-64-140.8-147.2V403.2c0-19.2 12.8-32 32-32s32 12.8 32 32v460.8c0 44.8 32 83.2 76.8 83.2h428.8c38.4 0 76.8-38.4 76.8-83.2V403.2c0-19.2 12.8-32 32-32s32 12.8 32 32v460.8c-6.4 83.2-70.4 147.2-147.2 147.2z" fill="#2F3448" p-id="9335"></path></svg>