 <svg class="icon" viewBox="0 0 1024 1024" version="1.1" xmlns="http://www.w3.org/2000/svg" p-id="15587" height="128" width="128"><path d="M520 79.6c240.6 0 436.4 195.8 436.4 436.4S760.6 952.3 520 952.3 83.6 756.6 83.6 516 279.4 79.6 520 79.6M520 39.9c-262.9 0-476 213.1-476 476s213.1 476 476 476 476-213.1 476-476S782.9 39.9 520 39.9L520 39.9zM748.1 317.6 529.9 317.6c-5.5 0-9.9 4.4-9.9 9.9l0 19.8c0 5.5 4.4 9.9 9.9 9.9l218.2 0c5.5 0 9.9-4.4 9.9-9.9l0-19.8C758 322.1 753.5 317.6 748.1 317.6L748.1 317.6zM381.1 198.6c-43.7 0-79.3 35.6-79.3 79.3 0 23.3 10.1 44.2 26.1 58.8l-31.5 54.6c-2.7 4.7-1.1 10.8 3.6 13.5l17.2 9.9c1.6 0.9 3.3 1.3 4.9 1.3 3.4 0 6.8-1.8 8.6-5l32.3-55.9c5.8 1.4 11.9 2.1 18.1 2.1 43.7 0 79.3-35.6 79.3-79.3S424.9 198.6 381.1 198.6zM381.1 317.6c-21.9 0-39.7-17.8-39.7-39.7 0-21.9 17.8-39.7 39.7-39.7 21.9 0 39.7 17.8 39.7 39.7C420.8 299.8 403 317.6 381.1 317.6zM748.1 456.5 272 456.5c-5.5 0-9.9 4.4-9.9 9.9l0 19.8c0 5.5 4.4 9.9 9.9 9.9l476 0c5.5 0 9.9-4.4 9.9-9.9l0-19.8C758 460.9 753.5 456.5 748.1 456.5L748.1 456.5zM748.1 595.3 272 595.3c-5.5 0-9.9 4.4-9.9 9.9l0 19.8c0 5.5 4.4 9.9 9.9 9.9l476 0c5.5 0 9.9-4.4 9.9-9.9l0-19.8C758 599.7 753.5 595.3 748.1 595.3L748.1 595.3zM748.1 734.1 272 734.1c-5.5 0-9.9 4.4-9.9 9.9l0 19.8c0 5.5 4.4 9.9 9.9 9.9l476 0c5.5 0 9.9-4.4 9.9-9.9l0-19.8C758 738.6 753.5 734.1 748.1 734.1L748.1 734.1z" p-id="15588"></path></svg>