 <svg class="icon" viewBox="0 0 1024 1024" version="1.1" xmlns="http://www.w3.org/2000/svg" p-id="5574" height="128" width="128"><path d="M703.89 320l0.11 0.11v511.78l-0.11 0.11H192.11l-0.11-0.11V320.11l0.11-0.11h511.78m0.11-64H192a64.19 64.19 0 0 0-64 64v512a64.19 64.19 0 0 0 64 64h512a64.19 64.19 0 0 0 64-64V320a64.19 64.19 0 0 0-64-64zM640 448H256v64h384v-64zM640 640H256v64h384v-64zM832 128H320a64.19 64.19 0 0 0-64 64v32h64v-31.89l0.11-0.11h511.78l0.11 0.11v511.78l-0.11 0.11H800v64h32a64.19 64.19 0 0 0 64-64V192a64.19 64.19 0 0 0-64-64z" p-id="5575"></path></svg>