 <svg class="icon" viewBox="0 0 1241 1024" version="1.1" xmlns="http://www.w3.org/2000/svg" p-id="5636" height="128" width="128"><path d="M768.271077 300.632967a23.813321 23.813321 0 0 1-23.81332-23.813321V93.266571a23.813321 23.813321 0 0 1 47.626641 0v183.553075a23.813321 23.813321 0 0 1-23.813321 23.813321zM23.975537 301.667145a23.813321 23.813321 0 0 1-23.813321-23.813321V111.514378a23.813321 23.813321 0 0 1 47.626641 0v166.339446a23.813321 23.813321 0 0 1-23.81332 23.813321zM397.626948 210.863552c-100.696327 0-195.568596-8.681656-267.199064-24.493701-85.632701-18.86015-127.244778-45.340562-127.244778-80.96529s41.598469-62.091532 127.23117-80.897252C202.044744 8.736087 296.944229 0.013608 397.613341 0.013608s195.568596 8.681656 267.199064 24.493701c85.632701 18.86015 127.244778 45.340562 127.244778 80.96529s-41.625684 62.118748-127.244778 80.96529c-71.644076 15.730399-166.516345 24.425663-267.185457 24.425663zM51.585381 105.431776c5.75602 6.885452 31.297507 23.037687 101.580822 37.080742 66.813374 13.362675 153.616329 20.724393 244.43353 20.724393s177.633764-7.361718 244.43353-20.724393c70.242492-14.043055 95.824802-30.208898 101.580822-37.080742-5.75602-6.885452-31.297507-23.037687-101.580822-37.080742-66.786159-13.362675-153.643544-20.710785-244.406315-20.710785S219.993184 55.001967 153.193418 68.364641C82.882888 82.394089 57.355009 98.546324 51.585381 105.431776zM391.870928 383.2856c-83.70042 0-176.898953-8.940201-249.876574-24.017434-38.876947-8.028491-70.133631-17.32249-92.885558-27.63706-11.811407-5.347791-47.74911-21.64971-48.987402-52.879179-0.353798-9.593366 2.721522-24.112688 19.241163-38.740871l31.542444 35.692766c-0.557912 0.489874-1.020571 0.938925-1.4288 1.360761 8.54558 7.620263 39.108276 23.75889 115.27008 38.210174 69.39882 13.158561 153.112847 20.642747 229.764524 20.411417s161.263807-8.164567 231.792059-21.840216c75.005156-14.573752 106.425132-30.304151 115.95046-38.00606l29.025035-36.441184c17.499389 13.947802 20.942114 28.331048 20.738001 37.938021-0.639558 30.685165-36.740552 46.932653-48.538351 52.280445-22.751927 10.260139-53.995003 19.635784-92.844735 27.881996-75.250093 15.961729-170.966034 25.609525-256.013608 25.854462zM768.216647 482.784458a23.813321 23.813321 0 0 1-23.813321-23.813321V275.418062a23.813321 23.813321 0 0 1 47.626641 0v183.553075a23.813321 23.813321 0 0 1-23.81332 23.813321zM23.934714 483.818636a23.813321 23.813321 0 0 1-23.81332-23.813321V293.652262a23.813321 23.813321 0 1 1 47.626641 0v166.298623a23.813321 23.813321 0 0 1-23.813321 23.867751zM391.775675 565.437091c-83.70042 0-176.898953-8.940201-249.876575-24.017434-38.876947-8.028491-70.133631-17.32249-92.885557-27.63706-11.811407-5.347791-47.74911-21.64971-48.987403-52.879179-0.353798-9.593366 2.721522-24.112688 19.241163-38.740871l31.542444 35.679158c-0.557912 0.489874-1.020571 0.938925-1.428799 1.360761 8.54558 7.620263 39.108276 23.75889 115.270079 38.210174 69.39882 13.158561 153.112847 20.588317 229.764525 20.411418s161.263807-8.164567 231.792058-21.840217c74.991548-14.560145 106.425132-30.304151 115.95046-37.992452l29.025036-36.441184c17.499389 13.947802 20.942114 28.331048 20.738 37.938021-0.639558 30.685165-36.740552 46.932653-48.538351 52.280445-22.751927 10.260139-53.995003 19.635784-92.844735 27.881996-75.250093 15.961729-170.966034 25.609525-256.013607 25.854462zM768.216647 588.148195a23.813321 23.813321 0 0 1-23.813321-23.81332v-118.671982a23.813321 23.813321 0 0 1 47.626641 0v118.658374a23.813321 23.813321 0 0 1-23.81332 23.826928zM23.934714 654.063467a23.813321 23.813321 0 0 1-23.81332-23.813321V463.9107a23.813321 23.813321 0 0 1 47.626641 0v166.339446a23.813321 23.813321 0 0 1-23.813321 23.813321zM391.775675 735.681922c-83.70042 0-176.898953-8.940201-249.876575-24.017435-38.876947-8.028491-70.133631-17.32249-92.885557-27.637059-11.811407-5.347791-47.74911-21.64971-48.987403-52.879179-0.353798-9.593366 2.721522-24.112688 19.241163-38.740871l31.542444 35.692766c-0.557912 0.489874-1.020571 0.938925-1.428799 1.360761 8.54558 7.620263 39.108276 23.75889 115.270079 38.210174 69.39882 13.158561 153.112847 20.601924 229.764525 20.411417a1319.938341 1319.938341 0 0 0 171.564769-12.001913l6.422793 47.191197a1368.340616 1368.340616 0 0 1-177.865094 12.437357zM23.934714 832.418434a23.813321 23.813321 0 0 1-23.81332-23.813321V642.292883a23.813321 23.813321 0 0 1 47.626641 0v166.31223a23.813321 23.813321 0 0 1-23.813321 23.813321zM391.775675 914.050497c-83.70042 0-176.898953-8.940201-249.876575-24.017435-38.876947-8.028491-70.133631-17.32249-92.885557-27.637059-11.811407-5.347791-47.74911-21.64971-48.987403-52.87918-0.353798-9.593366 2.721522-24.112688 19.241163-38.74087l31.542444 35.679158c-0.557912 0.489874-1.034178 0.938925-1.428799 1.360761 8.54558 7.620263 39.108276 23.75889 115.270079 38.210174 69.39882 13.158561 153.09924 20.615532 229.764525 20.411417a1334.103864 1334.103864 0 0 0 180.777122-13.226598l6.803806 47.136767a1383.390634 1383.390634 0 0 1-187.363206 13.689257zM590.786997 955.267953a23.813321 23.813321 0 0 1-23.81332-23.813321V791.405092a23.813321 23.813321 0 0 1 47.626641 0v140.063148a23.813321 23.813321 0 0 1-23.813321 23.799713zM1217.485557 801.052889a23.813321 23.813321 0 0 1-23.813321-23.813321V622.697922a23.813321 23.813321 0 0 1 47.626641 0v154.541646a23.813321 23.813321 0 0 1-23.81332 23.813321zM590.82782 801.923776a23.813321 23.813321 0 0 1-23.813321-23.81332V638.047308a23.813321 23.813321 0 1 1 47.626641 0v140.063148a23.813321 23.813321 0 0 1-23.81332 23.81332zM905.422196 725.462606c-85.020358 0-165.210014-7.34811-225.777494-20.68357-30.685165-6.694945-55.178866-14.859512-72.7599-23.976612-24.779461-12.900016-37.339287-29.011428-37.339287-47.871578s12.559826-34.971562 37.339287-47.871578c17.567427-9.144315 42.04752-17.213629 72.7599-23.976612 60.56748-13.33546 140.757136-20.68357 225.777494-20.68357s165.210014 7.34811 225.777494 20.68357c30.698772 6.803806 55.178866 14.832297 72.7599 23.976612 24.779461 12.900016 37.339287 29.011428 37.339287 47.871578s-12.559826 34.971562-37.339287 47.871578c-17.567427 9.144315-42.04752 17.213629-72.7599 23.976612-60.56748 13.33546-140.689098 20.68357-225.777494 20.68357z m-285.759847-92.53176c8.164567 6.313932 31.651305 18.030086 84.149471 28.222186 55.505448 10.763621 127.108701 16.69654 201.596769 16.69654s146.09132-5.932919 201.596768-16.69654c52.511774-10.178494 76.039335-21.894647 84.149471-28.222186-8.164567-6.313932-31.651305-18.030086-84.149471-28.208579-55.505448-10.763621-127.108701-16.69654-201.596768-16.69654s-146.09132 5.932919-201.596769 16.69654c-52.498166 10.178494-76.025727 21.894647-84.149471 28.208579zM900.577886 870.642215c-70.759581 0-149.466008-7.565832-211.149311-20.302556-33.012066-6.803806-59.587732-14.737044-78.992187-23.527561-10.464253-4.749057-42.319673-19.186733-43.394673-47.817148-0.326583-8.899378 2.422155-22.289268 17.472173-35.583904l30.127252 34.087067v-0.299367a8.368681 8.368681 0 0 0-1.088608-4.082284c3.347472 4.735449 27.705098 19.948759 99.335565 33.243396 57.641843 10.70919 126.89098 16.805401 189.975868 16.614894 63.343433-0.149684 133.354595-6.654122 191.867326-17.83958 71.889013-13.716473 96.763727-28.820922 100.274491-33.488332a9.606974 9.606974 0 0 0-1.360761 5.048424 11.85223 11.85223 0 0 0 0.122468 1.959496l28.575985-35.924095c15.934513 12.695902 19.050656 26.017754 18.873757 34.971562-0.653165 31.406368-38.291819 53.32823-122.019454 71.086164-63.601977 13.485143-144.472014 21.64971-216.361027 21.772179zM1217.444734 954.410673a23.813321 23.813321 0 0 1-23.813321-23.81332V776.055706a23.813321 23.813321 0 0 1 47.626641 0v154.541647a23.813321 23.813321 0 0 1-23.81332 23.81332zM900.537064 1024c-70.759581 0-149.4524-7.565832-211.149312-20.302557-33.012066-6.803806-59.587732-14.737044-78.992186-23.52756-10.464253-4.749057-42.319673-19.186733-43.394674-47.817148-0.326583-8.899378 2.422155-22.289268 17.472173-35.583905l30.127253 34.087068v-0.299368a8.368681 8.368681 0 0 0-1.088609-4.082283c3.347472 4.735449 27.705098 19.948759 99.335566 33.243395 57.641843 10.70919 126.877372 16.778185 189.975867 16.614894 63.343433-0.149684 133.354595-6.654122 191.867326-17.839579 71.889013-13.716473 96.763727-28.820922 100.274491-33.488333a9.606974 9.606974 0 0 0-1.360761 5.048424 11.838622 11.838622 0 0 0 0.122468 1.959497l28.575985-35.924096c15.934513 12.695902 19.050656 26.017754 18.873758 34.971563-0.653165 31.406368-38.291819 53.32823-122.019455 71.086164-63.601977 13.485143-144.472014 21.64971-216.361027 21.772178z" p-id="5637"></path></svg>