 <svg class="icon" viewBox="0 0 1024 1024" version="1.1" xmlns="http://www.w3.org/2000/svg" p-id="15691" height="128" width="128"><path d="M478.413498 1024c-58.461091 0-115.339636-10.472727-169.239273-31.045818a450.373818 450.373818 0 0 1-153.134545-97.512727A432.779636 432.779636 0 0 1 23.292044 577.722182a442.926545 442.926545 0 0 1 36.072727-169.844364 460.101818 460.101818 0 0 1 103.749818-149.876363 482.676364 482.676364 0 0 1 330.100364-135.447273c60.416-0.698182 119.249455 9.774545 174.871272 31.045818a450.373818 450.373818 0 0 1 153.134546 97.466182c89.320727 86.481455 136.378182 201.448727 132.747636 323.770182a446.464 446.464 0 0 1-38.4 168.168727 460.8 460.8 0 0 1-101.469091 145.454545 482.676364 482.676364 0 0 1-330.100363 135.447273C482.090589 1024 480.275316 1024 478.506589 1024z m20.48-834.699636h-4.701091a411.089455 411.089455 0 0 0-282.205091 115.898181c-75.962182 73.541818-118.458182 170.589091-119.621818 273.31491a365.847273 365.847273 0 0 0 112.500364 269.637818c72.750545 70.469818 169.704727 109.056 273.687273 109.056h4.70109a411.089455 411.089455 0 0 0 282.205091-115.851637 394.845091 394.845091 0 0 0 86.853819-124.416 382.510545 382.510545 0 0 0 32.86109-143.825454c3.118545-103.796364-36.864-201.309091-112.64-274.618182-72.797091-70.562909-169.797818-109.195636-273.687272-109.195636zM263.466589 0h450.280727v66.792727H263.466589V0zM512.019316 142.754909H442.201135c0-35.886545 0.232727-40.866909 0.465454-46.173091 0.232727-4.468364 0.372364-9.122909 0.372364-43.752727h69.818182c0 35.886545-0.279273 40.866909-0.465455 46.173091-0.139636 4.468364-0.372364 9.122909-0.372364 43.752727zM936.886225 279.272727a346.624 346.624 0 0 0-58.88-86.155636 376.459636 376.459636 0 0 0-126.510545-89.227636L781.657135 46.545455a445.021091 445.021091 0 0 1 149.504 105.425454A410.763636 410.763636 0 0 1 1000.746589 253.858909L936.886225 279.272727zM438.15168 744.727273l-24.064-22.295273a5090.676364 5090.676364 0 0 1-78.987636-74.984727C309.174225 622.452364 284.644771 598.760727 256.019316 572.509091l47.057455-52.130909c29.323636 26.810182 54.225455 50.874182 80.616727 76.194909 17.082182 16.430545 34.443636 33.326545 53.992727 51.665454 102.865455-97.885091 205.730909-197.399273 279.272728-275.921454L768.019316 420.584727c-80.523636 86.016-194.606545 195.770182-306.036363 301.474909L438.15168 744.727273z" p-id="15692"></path></svg>