 <svg class="icon" viewBox="0 0 1062 1024" version="1.1" xmlns="http://www.w3.org/2000/svg" p-id="15657" height="128" width="128"><path d="M82.03421 2.034084l651.944556 0c85.198211 0 199.725936-14.759794 236.111446 35.238604 26.03232 35.780378 21.143421 99.264947 21.143421 162.103008L991.233633 548.253778c-7.045652 5.87935-14.096476 11.748356-21.143421 17.622534-66.640825-0.067237-49.336373-57.561257-49.336373-119.817459l0-338.306371c-3.701909-5.066042-5.490152-13.823649-7.050824-21.142128-47.958016-27.254221-157.758469-14.097769-229.060622-14.097769L304.04918 72.512585c-70.408678 0-155.848683-5.519891-214.964146 7.046945-27.254221 47.961895-14.096476 157.762348-14.096476 229.060622L74.988558 689.217244c0 70.403506-5.519891 155.848683 7.045652 214.964146 29.61915 16.45494 78.581841 14.096476 126.86699 14.096476L459.105243 918.277866c40.872281 0 115.882807-10.47732 133.913935 14.095183 13.990448 18.244476 4.237218 49.882026-14.096476 56.383318l-496.888492 0c-99.223571-27.933055-77.53579-141.418608-77.525445-264.301812l0-458.121244c0-49.801859-12.191861-158.763144 3.520886-197.346784C23.792826 30.29298 51.89656 25.746731 82.03421 2.034084L82.03421 2.034084zM304.04918 248.712069l422.88264 0c12.334093 16.414856 18.213443 20.486568 17.617362 52.862431-35.835978 25.78406-78.177126 17.617362-137.433529 17.617362L304.04918 319.191862c-12.334093-16.416149-18.217322-20.481396-17.621241-52.857259C292.87751 261.788354 299.458968 255.121556 304.04918 248.712069L304.04918 248.712069zM304.04918 460.155329l422.88264 0c12.334093 16.416149 18.213443 20.486568 17.617362 52.855966-35.835978 25.789232-78.177126 17.623827-137.433529 17.623827L304.04918 530.635122c-12.334093-16.414856-18.217322-20.487861-17.621241-52.862431C292.87751 473.231614 299.458968 466.564816 304.04918 460.155329L304.04918 460.155329zM1008.854874 636.354813l35.239897 0c12.334093 16.414856 18.213443 20.485275 17.617362 52.862431-27.47662 21.929575-45.957718 59.48268-66.953735 88.101035-42.442004 57.828911-94.930753 111.371469-137.438701 169.153832-25.04704 34.042563-34.720104 77.9043-95.14798 77.525445-38.432357-49.12949-158.622205-120.175625-158.582122-193.822018 16.414856-12.334093 20.486568-18.213443 52.862431-17.617362 13.051718 17.177736 106.830392 110.408172 123.342225 116.291401 12.480204-21.325736 31.769438-37.28545 45.811607-56.383318 44.744868-60.861037 89.218202-118.824422 133.912642-179.724249C973.858065 673.196758 995.21354 656.664237 1008.854874 636.354813L1008.854874 636.354813zM304.04918 671.594709l422.88264 0c12.334093 16.414856 18.213443 20.485275 17.617362 52.861138-35.835978 25.785353-78.177126 17.617362-137.433529 17.617362L304.04918 742.07321c-12.334093-16.409684-18.217322-20.480103-17.621241-52.855966C292.87751 684.672288 299.458968 678.004197 304.04918 671.594709L304.04918 671.594709zM304.04918 671.594709" p-id="15658"></path></svg>