 <svg class="icon" viewBox="0 0 1024 1024" version="1.1" xmlns="http://www.w3.org/2000/svg" p-id="1647" height="128" width="128"><path d="M563.2 560.872727c79.127273-25.6 125.672727-107.054545 107.054545-190.836363-13.963636-62.836364-62.836364-111.709091-125.672727-125.672728-48.872727-9.309091-100.072727 2.327273-137.309091 32.581819-39.563636 30.254545-60.509091 76.8-60.509091 128 0 13.963636 9.309091 23.272727 23.272728 23.272727s23.272727-9.309091 23.272727-23.272727c0-34.909091 16.290909-67.490909 44.218182-90.763637s62.836364-30.254545 100.072727-23.272727c44.218182 9.309091 79.127273 44.218182 88.436364 88.436364 11.636364 60.509091-20.945455 116.363636-76.8 137.30909-37.236364 11.636364-60.509091 46.545455-60.509091 83.781819v16.290909c0 13.963636 9.309091 23.272727 23.272727 23.272727s23.272727-9.309091 23.272727-23.272727v-16.290909c0-16.290909 11.636364-32.581818 27.927273-39.563637z" fill="" p-id="1648"></path><path d="M514.327273 726.109091m-32.581818 0a32.581818 32.581818 0 1 0 65.163636 0 32.581818 32.581818 0 1 0-65.163636 0Z" fill="" p-id="1649"></path><path d="M923.927273 209.454545c-6.981818-9.309091-23.272727-11.636364-32.581818-4.654545-9.309091 6.981818-11.636364 23.272727-4.654546 32.581818C947.2 316.509091 977.454545 411.927273 977.454545 512c0 256-209.454545 465.454545-465.454545 465.454545S46.545455 768 46.545455 512 256 46.545455 512 46.545455c100.072727 0 195.490909 30.254545 274.618182 90.763636 9.309091 6.981818 25.6 4.654545 32.581818-4.654546s4.654545-25.6-4.654545-32.581818C726.109091 34.909091 621.381818 0 512 0 230.4 0 0 230.4 0 512s230.4 512 512 512 512-230.4 512-512c0-109.381818-34.909091-214.109091-100.072727-302.545455z" fill="" p-id="1650"></path></svg>