 <svg class="icon" viewBox="0 0 1024 1024" version="1.1" xmlns="http://www.w3.org/2000/svg" p-id="5508" height="128" width="128"><path d="M528.384 194.048c169.472 0 307.712 138.24 307.712 307.712s-138.24 307.712-307.712 307.712-307.712-138.24-307.712-307.712S358.912 194.048 528.384 194.048M528.384 135.68c-202.24 0-366.08 163.84-366.08 366.08 0 202.24 163.84 366.08 366.08 366.08 202.24 0 366.08-163.84 366.08-366.08C894.976 299.52 730.624 135.68 528.384 135.68L528.384 135.68zM522.752 567.296c-8.192 0-15.872-3.072-22.016-9.728L370.688 412.672c-10.752-12.288-9.728-30.72 2.048-41.472 12.288-10.752 30.72-9.728 41.472 2.048l130.56 144.896c10.752 12.288 9.728 30.72-2.048 41.472C536.576 564.736 529.92 567.296 522.752 567.296zM528.384 582.144c-16.384 0-29.184-13.312-29.184-29.184l0-261.12c0-16.384 13.312-29.184 29.184-29.184s29.184 13.312 29.184 29.184l0 261.12C558.08 569.344 544.768 582.144 528.384 582.144zM176.128 288.256c-7.68 0-14.848-3.072-20.48-8.704-11.264-11.264-11.264-30.208 0-41.472l122.88-122.88c11.264-11.264 30.208-11.264 41.472 0 11.264 11.264 11.264 30.208 0 41.472l-122.88 122.88C190.976 285.696 183.296 288.256 176.128 288.256zM881.152 288.256c-7.68 0-14.848-3.072-20.48-8.704l-122.88-122.88c-11.264-11.264-11.264-30.208 0-41.472s30.208-11.264 41.472 0l122.88 122.88c11.264 11.264 11.264 30.208 0 41.472C896 285.696 888.832 288.256 881.152 288.256zM238.08 911.872c-5.632 0-11.776-1.536-16.896-5.632-13.312-9.216-16.384-27.648-6.656-40.96l36.352-51.2c9.216-13.312 27.648-16.384 40.96-6.656 13.312 9.216 16.384 27.648 6.656 40.96l-36.352 51.2C256 907.264 247.296 911.872 238.08 911.872zM819.2 911.872c-9.216 0-17.92-4.096-24.064-12.288l-36.352-51.2c-9.216-13.312-6.144-31.232 6.656-40.96 13.312-9.216 31.232-6.144 40.96 6.656l36.352 51.2c9.216 13.312 6.144 31.232-6.656 40.96C830.976 909.824 825.344 911.872 819.2 911.872z" p-id="5509"></path></svg>