 <svg class="icon" viewBox="0 0 1024 1024" version="1.1" xmlns="http://www.w3.org/2000/svg" p-id="13145" height="128" width="128"><path d="M627.874409 399.670492c13.063754 0 23.769205-11.263997 23.769204-25.041447v-18.866418c0-13.77745-10.705451-25.010417-23.769204-25.010417h-41.022049c-13.094784 0-18.431994-9.774542-11.791511-21.628115l56.00968-101.313908c6.516362-11.884602 1.303272-21.628115-11.791512-21.628115h-17.93551c-13.063754 0-29.106415 9.743512-35.777928 21.628115l-56.00968 101.313908c-6.516362 11.853572-12.474178 21.628115-13.063754 21.628115-0.620606 0-6.516362-9.774542-13.063753-21.628115l-56.00968-101.313908C420.90235 195.925584 404.704537 186.182072 391.609753 186.182072h-17.96654c-13.063754 0-18.431994 9.743512-11.791512 21.628115l56.00968 101.313908c6.547392 11.853572 1.334303 21.628115-11.760481 21.628115h-41.022048c-13.063754 0-23.769205 11.232966-23.769205 25.010417v18.866418c0 13.77745 10.705451 25.010417 23.769205 25.010417h74.907129c13.094784 0 23.769205 11.263997 23.769205 25.010417v3.630544c0 13.77745-10.674421 25.010417-23.769205 25.010417H366.164912c-13.032723 0-23.769205 11.263997-23.769205 25.010416v18.897449c0 13.74642 10.705451 25.010417 23.800235 25.010417h73.852099c13.032723 0 23.738175 11.263997 23.738175 25.010416v79.406522c0 13.74642 10.705451 25.010417 23.800235 25.010416h17.93551c13.094784 0 23.769205-11.263997 23.769205-25.010416v-79.437552c0-13.71539 10.705451-24.979386 23.800235-24.979386h73.852099c13.032723 0 23.738175-11.263997 23.738174-25.010417v-18.897449c0-13.74642-10.674421-25.010417-23.769205-25.010416h-73.852098c-13.032723 0-23.769205-11.232966-23.769205-25.010417v-3.630544c0-13.74642 10.705451-25.010417 23.800235-25.010417h74.783008zM860.725732 517.585608a25.134538 25.134538 0 0 1-25.258659-24.917326L835.591194 24.917636A25.134538 25.134538 0 0 0 810.332535 0.00031H205.738294a25.134538 25.134538 0 0 0-25.258659 24.917326l0.124121 467.750646a25.134538 25.134538 0 0 1-25.258659 24.917326H13.00914c-13.901572 0-17.159752 7.943755-7.323149 17.532116l489.099488 481.590157a25.568962 25.568962 0 0 0 35.746898 0l487.827247-481.962521c9.867633-9.712482 6.454301-17.532116-7.447271-17.532116l-150.186621 0.372364zM529.136014 921.072516a25.568962 25.568962 0 0 1-35.746898 0L173.55988 604.47043c-9.836603-9.712482-6.423271-17.687267 7.44727-17.687267h43.070048a25.134538 25.134538 0 0 0 25.289689-24.917326V94.146221a25.134538 25.134538 0 0 1 25.258659-24.917326h465.206162a25.134538 25.134538 0 0 1 25.258659 24.917326l0.124121 467.750646a25.134538 25.134538 0 0 0 25.289689 24.917326h52.410166c13.901572 0 17.190783 7.974785 7.447271 17.563146L529.136014 921.072516z" p-id="13146"></path></svg>