 <svg class="icon" viewBox="0 0 1024 1024" version="1.1" xmlns="http://www.w3.org/2000/svg" p-id="14019" height="128" width="128"><path d="M514.476401 957.649849c58.18519 0 107.415428-42.584887 107.415428-100.506065l-213.574237 0C408.318616 915.064962 456.326003 957.649849 514.476401 957.649849zM885.72268 756.638743c-13.262048 0-50.253544 0-50.253544 0l-1.988284-325.688687c0-156.236344-113.910353-281.173844-263.7408-305.826314 0.147356-1.566682 0-6.895037 0-8.494465 0-28.983101-26.189476-50.972928-55.263651-50.972928-29.077246 0-46.829562 21.989827-46.829562 50.972928 0 1.599428-0.149403 6.927783 0 8.494465-149.756769 24.618701-272.247544 149.551084-272.247544 305.826314l-0.656963 325.688687-50.252521 0c-33.946137 0-32.265868 37.688367 0 37.688367l741.232868 0C920.593885 794.32711 921.084049 756.638743 885.72268 756.638743zM797.779745 756.638743 232.432747 756.638743c0-43.512003-1.098008-322.389548-1.098008-322.389548 0.846274-147.977239 130.241296-261.660418 261.836427-283.640012-0.132006-1.399883 0-7.066953 0-8.494465 0-53.319369 51.046606-53.319369 51.046606 0 0 1.427512 0.127913 7.094582 0 8.494465 131.659599 22.00927 255.289314 144.158261 255.289314 283.640012C799.507086 434.249195 798.148136 709.516516 797.779745 756.638743zM496.261551 618.441241l37.688367 0L533.949918 316.923046l-37.688367 0L496.261551 618.441241zM496.261551 706.385199l37.688367 0 0-37.691437-37.688367 0L496.261551 706.385199z" p-id="14020"></path></svg>