 <svg class="icon" viewBox="0 0 1024 1024" version="1.1" xmlns="http://www.w3.org/2000/svg" p-id="1443" height="128" width="128"><path d="M511.990608 186.50543a325.503963 325.503963 0 1 0 325.503962 325.503962 325.503963 325.503963 0 0 0-325.503962-325.503962z m207.746123 513.312967c0 27.32877-27.566117 49.537634-61.540593 49.537635h-292.41106c-33.906663 0-61.540593-22.174957-61.540593-49.537635V525.572057c0-27.396584 27.53221-49.605448 61.540593-49.605447h3.5602a211.035069 211.035069 0 0 1-1.72924-26.752357c0-99.075269 68.796619-174.483687 153.698902-174.483687 66.117992 0 122.436959 45.095861 144.137224 112.400587a27.12533 27.12533 0 0 1-24.514518 35.262929 27.12533 27.12533 0 0 1-24.412797-17.665371c-15.393625-41.908635-38.857036-80.969111-95.142096-80.969111-58.692433 0-100.024655 62.38826-100.024655 124.200106a138.034024 138.034024 0 0 0 2.84816 27.93909h233.955973c33.906663 0 61.540593 22.208864 61.540593 49.571541zM511.990608 1024C225.275867 1024-7.154306 787.094147 0.169533 498.751887 7.222119 220.615532 238.262119-2.354682 516.500194 0.018784a508.294782 508.294782 0 0 1 277.186968 84.359777 16.512545 16.512545 0 0 1 4.340053 23.327784A16.478638 16.478638 0 0 1 775.445378 111.910771a479.033332 479.033332 0 0 0-742.555915 400.098621c0 264.098996 214.866522 478.965518 478.965518 478.965518s479.101145-214.866522 479.101145-478.965518A473.438732 473.438732 0 0 0 945.995891 309.315362a16.580358 16.580358 0 0 1 7.425559-21.801984 16.546451 16.546451 0 0 1 22.446211 7.662906A506.192569 506.192569 0 0 1 1023.981216 512.009392c0 282.306874-229.683734 511.990608-511.990608 511.990608zM927.00816 223.361972m-18.648664 0a18.648665 18.648665 0 1 0 37.297329 0 18.648665 18.648665 0 1 0-37.297329 0Z" p-id="1444"></path></svg>